<svg width="890" height="730" viewBox="0 0 890 730" fill="none" xmlns="http://www.w3.org/2000/svg">
<g clip-path="url(#clip0_739_1173)">
<path d="M219.677 665.91L221.488 704.067L221.488 704.068C221.793 710.517 219.524 716.823 215.18 721.6C210.836 726.376 204.773 729.231 198.324 729.537L197.534 729.575L194.57 667.101L219.677 665.91Z" fill="#2F2E41"/>
<path d="M762.171 601.427C743.997 636.892 720.947 671.191 691.781 702.235C691.134 702.936 690.48 703.619 689.82 704.314L620.719 671.601C621.141 670.899 621.605 670.111 622.103 669.249C651.787 618.462 830.968 308.657 825.306 238.49C825.966 244.277 847.204 435.659 762.171 601.427Z" fill="#E6E6E6"/>
<path d="M705.113 708.546C704.146 709.096 703.154 709.634 702.156 710.154L650.318 685.614C651.043 685.099 651.887 684.491 652.858 683.808C668.739 672.405 715.963 638.194 762.171 601.427C811.829 561.916 860.324 519.463 867.525 499.199C866.062 503.846 820.611 645.096 705.113 708.546Z" fill="#E6E6E6"/>
<path d="M86.2295 728.051C130.412 728.051 166.229 692.234 166.229 648.051C166.229 603.868 130.412 568.051 86.2295 568.051C42.0467 568.051 6.22949 603.868 6.22949 648.051C6.22949 692.234 42.0467 728.051 86.2295 728.051Z" fill="#6C63FF"/>
<path d="M118.275 614.479H54.1847C51.3527 614.483 48.6376 615.609 46.6351 617.612C44.6326 619.614 43.5061 622.329 43.5029 625.161V670.94C43.5061 673.772 44.6325 676.487 46.6351 678.49C48.6376 680.492 51.3527 681.619 54.1847 681.622H118.275C121.107 681.619 123.823 680.492 125.825 678.49C127.828 676.487 128.954 673.772 128.957 670.94V625.161C128.954 622.329 127.828 619.614 125.825 617.612C123.823 615.609 121.107 614.483 118.275 614.479ZM118.275 620.583C118.658 620.585 119.039 620.635 119.409 620.731L86.2375 647.193L53.2597 620.677C53.5641 620.615 53.874 620.583 54.1846 620.583H118.275ZM118.275 675.518H54.1847C52.971 675.517 51.8074 675.034 50.9492 674.176C50.091 673.318 49.6082 672.154 49.6068 670.94V625.572L84.3178 653.481C84.8583 653.916 85.5307 654.153 86.2243 654.155C86.9178 654.156 87.5911 653.921 88.1333 653.488L122.853 625.792V670.94C122.852 672.154 122.369 673.318 121.511 674.176C120.653 675.034 119.489 675.517 118.275 675.518Z" fill="white"/>
<path d="M394.968 532.551L412.868 532.698C414.68 532.713 416.472 532.333 418.121 531.584C419.771 530.835 421.236 529.735 422.417 528.361C423.597 526.987 424.464 525.372 424.956 523.629C425.448 521.886 425.554 520.057 425.267 518.268C424.957 516.344 424.2 514.518 423.057 512.94C421.913 511.361 420.415 510.073 418.683 509.178C416.951 508.284 415.033 507.809 413.084 507.792C411.134 507.774 409.208 508.214 407.46 509.077L390.579 517.407L332.843 530.282L308.108 504.993L293.899 528.394L327.277 554.182L394.968 532.551Z" fill="#FFB8B8"/>
<path d="M391.613 717.49L370.524 721.546C356.118 676.137 340.511 633.135 340.512 599.876C320.126 622.565 294.845 635.545 265.076 639.621L268.321 589.331L292.655 576.353L329.898 559.164C333.159 557.659 336.676 556.788 340.263 556.6C347.235 556.233 354.097 558.458 359.527 562.847C364.957 567.236 368.571 573.479 369.674 580.373L391.613 717.49Z" fill="#2F2E41"/>
<path d="M290.627 633.538L282.222 639.926C278.607 642.673 274.337 644.427 269.836 645.013C265.334 645.6 260.757 645 256.559 643.271C232.484 625.225 215.38 630.549 199.878 657.787C181.284 636.802 176.696 606.493 193.291 575.136L285.355 577.164L304.011 571.486L290.627 633.538Z" fill="#2F2E41"/>
<path d="M259.966 727.517C254.691 729.14 249.013 728.855 243.926 726.712C238.84 724.569 234.67 720.705 232.147 715.796C223.873 708.508 216.892 698.075 210.837 685.387C206.493 676.08 202.763 666.498 199.67 656.704C195.481 643.764 202.486 629.627 215.525 625.756C215.913 625.641 216.305 625.532 216.702 625.43C234.109 620.961 251.983 631.001 257.933 647.958L275.235 697.266C276.257 700.179 276.695 703.265 276.524 706.347C276.354 709.429 275.578 712.448 274.241 715.23C272.904 718.013 271.032 720.505 268.732 722.564C266.432 724.622 263.749 726.208 260.836 727.23C260.548 727.331 260.258 727.427 259.966 727.517Z" fill="#2F2E41"/>
<path opacity="0.2" d="M207.892 679.772C207.892 679.772 228.17 702.484 232.226 715.462L207.892 679.772Z" fill="black"/>
<path d="M129.244 572.587L122.457 589.151C121.77 590.827 121.458 592.633 121.54 594.442C121.623 596.251 122.1 598.021 122.937 599.627C123.774 601.234 124.951 602.638 126.386 603.743C127.822 604.847 129.481 605.625 131.248 606.023C133.15 606.451 135.126 606.426 137.016 605.951C138.907 605.476 140.66 604.563 142.133 603.287C143.607 602.011 144.761 600.407 145.501 598.604C146.242 596.801 146.549 594.849 146.397 592.905L144.935 574.138L154.431 515.75L187.099 502.181L170.652 480.296L134.309 501.705L129.244 572.587Z" fill="#FFB8B8"/>
<path d="M291.438 575.136C268.132 614.283 221.671 629.442 181.878 598.787C188.878 575.787 211.478 512.221 196.878 509.787C165.878 522.787 165.833 492.265 160.034 476.989L230.603 451.032L268.726 461.577L276.541 464.35C281.627 466.155 286.038 469.473 289.181 473.86C292.325 478.247 294.049 483.491 294.123 488.887C278.109 512.022 266.254 536.702 291.438 575.136Z" fill="#6C63FF"/>
<path d="M300.361 543.502L272.377 520.384L281.705 466.444L319.828 507.001L300.361 543.502Z" fill="#6C63FF"/>
<path d="M764.704 172.945H760.704V63.4C760.704 46.5853 754.025 30.4592 742.135 18.5694C730.245 6.67963 714.119 0 697.304 0H465.217C448.403 0 432.277 6.67963 420.387 18.5694C408.497 30.4592 401.817 46.5853 401.817 63.4V664.374C401.817 681.189 408.497 697.315 420.387 709.205C432.277 721.094 448.403 727.774 465.217 727.774H697.303C714.118 727.774 730.244 721.094 742.134 709.205C754.024 697.315 760.703 681.189 760.703 664.374V250.921H764.703L764.704 172.945Z" fill="#3F3D56"/>
<path d="M699.863 16.493H669.568C670.962 19.9088 671.494 23.6151 671.118 27.2852C670.742 30.9554 669.469 34.4766 667.411 37.5388C665.353 40.601 662.574 43.11 659.318 44.8448C656.062 46.5796 652.429 47.487 648.74 47.4869H515.781C512.092 47.4866 508.46 46.5791 505.204 44.8444C501.949 43.1097 499.17 40.6009 497.112 37.5392C495.054 34.4775 493.781 30.9567 493.405 27.2871C493.029 23.6175 493.56 19.9116 494.954 16.496H466.654C454.096 16.496 442.053 21.4844 433.174 30.3639C424.294 39.2433 419.306 51.2865 419.306 63.844V663.933C419.306 676.49 424.294 688.534 433.174 697.413C442.053 706.292 454.096 711.281 466.654 711.281H699.854C712.411 711.281 724.454 706.292 733.334 697.413C742.213 688.534 747.202 676.49 747.202 663.933V663.933V63.8409C747.202 51.2834 742.213 39.2403 733.334 30.3608C724.454 21.4814 712.411 16.4929 699.854 16.4929H699.863L699.863 16.493Z" fill="white"/>
<path d="M583.658 677.746C598.018 677.746 609.658 666.105 609.658 651.746C609.658 637.387 598.018 625.746 583.658 625.746C569.299 625.746 557.658 637.387 557.658 651.746C557.658 666.105 569.299 677.746 583.658 677.746Z" fill="#E6E6E6"/>
<path d="M478.182 411.298C475.725 411.298 473.725 413.581 473.725 416.386C473.725 419.191 475.725 421.474 478.182 421.474H688.325C690.782 421.474 692.782 419.191 692.782 416.386C692.782 413.581 690.782 411.298 688.325 411.298H478.182Z" fill="#E6E6E6"/>
<path d="M478.182 531.298C475.725 531.298 473.725 533.581 473.725 536.386C473.725 539.191 475.725 541.474 478.182 541.474H688.325C690.782 541.474 692.782 539.191 692.782 536.386C692.782 533.581 690.782 531.298 688.325 531.298H478.182Z" fill="#E6E6E6"/>
<path d="M478.182 441.826C475.725 441.826 473.725 444.108 473.725 446.914C473.725 449.719 475.725 452.001 478.182 452.001H568.607C571.065 452.001 573.065 449.719 573.065 446.914C573.065 444.108 571.065 441.826 568.607 441.826H478.182Z" fill="#E6E6E6"/>
<path d="M478.182 470.924C475.725 470.924 473.725 473.207 473.725 476.012C473.725 478.817 475.725 481.1 478.182 481.1H688.325C690.782 481.1 692.782 478.817 692.782 476.012C692.782 473.207 690.782 470.924 688.325 470.924H478.182Z" fill="#E6E6E6"/>
<path d="M478.182 501.451C475.725 501.451 473.725 503.734 473.725 506.539C473.725 509.344 475.725 511.627 478.182 511.627H568.607C571.065 511.627 573.065 509.344 573.065 506.539C573.065 503.734 571.065 501.451 568.607 501.451H478.182Z" fill="#E6E6E6"/>
<path d="M517.853 179.627H648.666C650.111 179.629 651.497 180.204 652.519 181.226C653.54 182.247 654.115 183.633 654.117 185.078V321.315C654.115 322.76 653.54 324.145 652.519 325.167C651.497 326.189 650.111 326.763 648.666 326.765H517.853C516.408 326.763 515.022 326.189 514.001 325.167C512.979 324.145 512.404 322.76 512.402 321.315V185.078C512.404 183.633 512.979 182.247 514.001 181.225C515.022 180.204 516.408 179.629 517.853 179.627Z" fill="#6C63FF"/>
<path d="M620.793 298.671C621.279 298.672 621.761 298.577 622.211 298.391C622.66 298.206 623.069 297.934 623.414 297.59C623.758 297.247 624.031 296.839 624.218 296.389C624.404 295.94 624.5 295.458 624.501 294.972C624.501 294.486 624.405 294.004 624.219 293.554C624.033 293.105 623.76 292.697 623.416 292.353C623.072 292.009 622.664 291.736 622.214 291.55C621.764 291.365 621.283 291.269 620.796 291.27H545.727C545.24 291.269 544.758 291.364 544.309 291.549C543.859 291.735 543.45 292.007 543.106 292.35C542.761 292.694 542.488 293.102 542.302 293.551C542.115 294 542.019 294.482 542.019 294.968C542.018 295.455 542.114 295.937 542.3 296.386C542.486 296.835 542.759 297.244 543.103 297.588C543.447 297.931 543.856 298.204 544.305 298.39C544.755 298.576 545.237 298.671 545.723 298.671H620.793Z" fill="white"/>
<path d="M620.793 276.868C621.774 276.868 622.715 276.479 623.409 275.785C624.103 275.091 624.493 274.149 624.493 273.168C624.493 272.187 624.103 271.245 623.409 270.551C622.715 269.857 621.774 269.468 620.793 269.468H545.727C544.745 269.467 543.804 269.856 543.109 270.55C542.415 271.244 542.025 272.185 542.024 273.166C542.024 274.148 542.413 275.089 543.107 275.783C543.801 276.478 544.742 276.868 545.723 276.868H620.793Z" fill="white"/>
<path d="M583.259 207.722C587.866 207.722 592.37 209.088 596.2 211.647C600.03 214.207 603.016 217.844 604.779 222.101C606.542 226.357 607.003 231.04 606.104 235.558C605.206 240.077 602.987 244.227 599.73 247.485C596.472 250.742 592.322 252.96 587.804 253.859C583.285 254.758 578.602 254.297 574.346 252.534C570.09 250.771 566.452 247.785 563.892 243.955C561.333 240.124 559.967 235.621 559.967 231.014C559.974 224.839 562.43 218.918 566.797 214.552C571.163 210.185 577.084 207.729 583.259 207.722Z" fill="white"/>
<path d="M286.064 443.97H216.914C215.491 443.969 214.128 443.403 213.122 442.397C212.116 441.391 211.55 440.028 211.549 438.605V408.799C211.549 398.206 215.757 388.047 223.247 380.557C230.737 373.067 240.896 368.859 251.489 368.859C262.082 368.859 272.24 373.067 279.731 380.557C287.221 388.047 291.429 398.206 291.429 408.799V438.605C291.427 440.028 290.861 441.391 289.856 442.397C288.85 443.403 287.486 443.969 286.064 443.97Z" fill="#2F2E41"/>
<path d="M284.818 426.938C292.575 412.747 287.36 394.955 273.169 387.198C258.979 379.441 241.187 384.656 233.429 398.847C225.672 413.037 230.887 430.829 245.078 438.586C259.268 446.344 277.061 441.128 284.818 426.938Z" fill="#FFB6B6"/>
<path d="M300.878 411.78H258.595L258.161 405.709L255.993 411.78H249.483L248.623 399.748L244.327 411.78H231.729V411.184C231.738 402.807 235.07 394.777 240.993 388.854C246.916 382.931 254.946 379.599 263.323 379.589H269.284C277.66 379.599 285.691 382.93 291.614 388.854C297.537 394.777 300.869 402.807 300.878 411.184V411.78Z" fill="#2F2E41"/>
<path d="M258.248 449.534C257.93 449.534 257.612 449.506 257.299 449.45L226.337 443.987V392.817H260.42L259.576 393.8C247.836 407.493 256.681 429.694 262.998 441.71C263.464 442.59 263.671 443.584 263.597 444.577C263.523 445.569 263.169 446.521 262.578 447.322C262.083 448.007 261.432 448.564 260.679 448.949C259.927 449.334 259.093 449.534 258.248 449.534Z" fill="#2F2E41"/>
<path d="M361.333 702.175L399.533 702.174H399.534C405.991 702.174 412.182 704.739 416.748 709.304C421.313 713.869 423.878 720.061 423.878 726.517V727.308L361.334 727.311L361.333 702.175Z" fill="#2F2E41"/>
<path d="M889 729.787H1C0.734784 729.787 0.480429 729.682 0.292892 729.494C0.105356 729.307 0 729.052 0 728.787C0 728.522 0.105356 728.267 0.292892 728.08C0.480429 727.892 0.734784 727.787 1 727.787H889C889.265 727.787 889.52 727.892 889.707 728.08C889.895 728.267 890 728.522 890 728.787C890 729.052 889.895 729.307 889.707 729.494C889.52 729.682 889.265 729.787 889 729.787Z" fill="#CACACA"/>
</g>
<defs>
<clipPath id="clip0_739_1173">
<rect width="890" height="729.787" fill="white"/>
</clipPath>
</defs>
</svg>
